/* Created with The GIMP */
#define cursor_select_width 48
#define cursor_select_height 48
#define cursor_select_x_hot 24
#define cursor_select_y_hot 24
static unsigned char cursor_select_bits[] = {
   0x00, 0x00, 0x00, 0x00, 0x00, 0x00, 0x00, 0x00, 0x00, 0x00, 0x00, 0x00,
   0x00, 0x00, 0x00, 0x00, 0x00, 0x00, 0x00, 0x00, 0x00, 0x00, 0x00, 0x00,
   0x00, 0x00, 0x00, 0x00, 0x00, 0x00, 0x00, 0x00, 0x00, 0x00, 0x00, 0x00,
   0x00, 0x00, 0x00, 0x00, 0x00, 0x00, 0x00, 0x00, 0x80, 0x00, 0x00, 0x00,
   0x00, 0x00, 0x40, 0x01, 0x00, 0x00, 0x00, 0x00, 0x40, 0x01, 0x00, 0x00,
   0x00, 0x00, 0x40, 0x01, 0x00, 0x00, 0x00, 0x00, 0x40, 0x01, 0x00, 0x00,
   0x00, 0x00, 0x40, 0x01, 0x00, 0x00, 0x00, 0x00, 0x40, 0x01, 0x00, 0x00,
   0x00, 0x00, 0x40, 0x01, 0x00, 0x00, 0x00, 0x00, 0x40, 0x01, 0x00, 0x00,
   0x00, 0x00, 0x40, 0x01, 0x00, 0x00, 0x00, 0x00, 0x40, 0x01, 0x00, 0x00,
   0x00, 0x00, 0x40, 0x01, 0x00, 0x00, 0x00, 0x00, 0x40, 0x01, 0x00, 0x00,
   0x00, 0x00, 0x40, 0x01, 0x00, 0x00, 0x00, 0x00, 0x80, 0x00, 0x00, 0x00,
   0x00, 0xff, 0x1f, 0xfc, 0x7f, 0x00, 0x80, 0x00, 0x20, 0x02, 0x80, 0x00,
   0x00, 0xff, 0x1f, 0xfc, 0x7f, 0x00, 0x00, 0x00, 0x80, 0x00, 0x00, 0x00,
   0x00, 0x00, 0x40, 0x01, 0x00, 0x00, 0x00, 0x00, 0x40, 0x01, 0x00, 0x00,
   0x00, 0x00, 0x40, 0x01, 0x00, 0x00, 0x00, 0x00, 0x40, 0x01, 0x00, 0x00,
   0x00, 0x00, 0x40, 0x01, 0x00, 0x00, 0x00, 0x00, 0x40, 0x31, 0x33, 0x33,
   0x00, 0x00, 0x40, 0xc9, 0xcc, 0x4c, 0x00, 0x00, 0x40, 0x29, 0x33, 0x53,
   0x00, 0x00, 0x40, 0x11, 0x00, 0x20, 0x00, 0x00, 0x40, 0x11, 0x00, 0x20,
   0x00, 0x00, 0x40, 0x29, 0x00, 0x50, 0x00, 0x00, 0x40, 0x29, 0x00, 0x50,
   0x00, 0x00, 0x40, 0x11, 0x00, 0x20, 0x00, 0x00, 0x80, 0x10, 0x00, 0x20,
   0x00, 0x00, 0x00, 0x28, 0x00, 0x50, 0x00, 0x00, 0x00, 0x28, 0x00, 0x50,
   0x00, 0x00, 0x00, 0x10, 0x00, 0x20, 0x00, 0x00, 0x00, 0x10, 0x00, 0x20,
   0x00, 0x00, 0x00, 0x28, 0x33, 0x53, 0x00, 0x00, 0x00, 0xc8, 0xcc, 0x4c,
   0x00, 0x00, 0x00, 0x30, 0x33, 0x33, 0x00, 0x00, 0x00, 0x00, 0x00, 0x00 };
