/* Created with The GIMP */
#define cursor_select_mask_width 48
#define cursor_select_mask_height 48
#define cursor_select_mask_x_hot 24
#define cursor_select_mask_y_hot 24
static unsigned char cursor_select_mask_bits[] = {
   0x00, 0x00, 0x00, 0x00, 0x00, 0x00, 0x00, 0x00, 0x00, 0x00, 0x00, 0x00,
   0x00, 0x00, 0x00, 0x00, 0x00, 0x00, 0x00, 0x00, 0x00, 0x00, 0x00, 0x00,
   0x00, 0x00, 0x00, 0x00, 0x00, 0x00, 0x00, 0x00, 0x00, 0x00, 0x00, 0x00,
   0x00, 0x00, 0x00, 0x00, 0x00, 0x00, 0x00, 0x00, 0x80, 0x00, 0x00, 0x00,
   0x00, 0x00, 0xc0, 0x01, 0x00, 0x00, 0x00, 0x00, 0xc0, 0x01, 0x00, 0x00,
   0x00, 0x00, 0xc0, 0x01, 0x00, 0x00, 0x00, 0x00, 0xc0, 0x01, 0x00, 0x00,
   0x00, 0x00, 0xc0, 0x01, 0x00, 0x00, 0x00, 0x00, 0xc0, 0x01, 0x00, 0x00,
   0x00, 0x00, 0xc0, 0x01, 0x00, 0x00, 0x00, 0x00, 0xc0, 0x01, 0x00, 0x00,
   0x00, 0x00, 0xc0, 0x01, 0x00, 0x00, 0x00, 0x00, 0xc0, 0x01, 0x00, 0x00,
   0x00, 0x00, 0xc0, 0x01, 0x00, 0x00, 0x00, 0x00, 0xc0, 0x01, 0x00, 0x00,
   0x00, 0x00, 0xc0, 0x01, 0x00, 0x00, 0x00, 0x00, 0x80, 0x00, 0x00, 0x00,
   0x00, 0xff, 0x1f, 0xfc, 0x7f, 0x00, 0x80, 0xff, 0x3f, 0xfe, 0xff, 0x00,
   0x00, 0xff, 0x1f, 0xfc, 0x7f, 0x00, 0x00, 0x00, 0x80, 0x00, 0x00, 0x00,
   0x00, 0x00, 0xc0, 0x01, 0x00, 0x00, 0x00, 0x00, 0xc0, 0x01, 0x00, 0x00,
   0x00, 0x00, 0xc0, 0x01, 0x00, 0x00, 0x00, 0x00, 0xc0, 0x01, 0x00, 0x00,
   0x00, 0x00, 0xc0, 0x01, 0x00, 0x00, 0x00, 0x00, 0xc0, 0x31, 0x33, 0x33,
   0x00, 0x00, 0xc0, 0xf9, 0xff, 0x7f, 0x00, 0x00, 0xc0, 0x39, 0x33, 0x73,
   0x00, 0x00, 0xc0, 0x11, 0x00, 0x20, 0x00, 0x00, 0xc0, 0x11, 0x00, 0x20,
   0x00, 0x00, 0xc0, 0x39, 0x00, 0x70, 0x00, 0x00, 0xc0, 0x39, 0x00, 0x70,
   0x00, 0x00, 0xc0, 0x11, 0x00, 0x20, 0x00, 0x00, 0x80, 0x10, 0x00, 0x20,
   0x00, 0x00, 0x00, 0x38, 0x00, 0x70, 0x00, 0x00, 0x00, 0x38, 0x00, 0x70,
   0x00, 0x00, 0x00, 0x10, 0x00, 0x20, 0x00, 0x00, 0x00, 0x10, 0x00, 0x20,
   0x00, 0x00, 0x00, 0x38, 0x33, 0x73, 0x00, 0x00, 0x00, 0xf8, 0xff, 0x7f,
   0x00, 0x00, 0x00, 0x30, 0x33, 0x33, 0x00, 0x00, 0x00, 0x00, 0x00, 0x00 };
