/* Created with The GIMP */
#define cursor_zoom_mask_width 48
#define cursor_zoom_mask_height 48
#define cursor_zoom_mask_x_hot 24
#define cursor_zoom_mask_y_hot 24
static unsigned char cursor_zoom_mask_bits[] = {
   0x00, 0x00, 0x00, 0x00, 0x00, 0x00, 0x00, 0x00, 0x00, 0x00, 0x00, 0x00,
   0x00, 0x00, 0x00, 0x00, 0x00, 0x00, 0x00, 0x00, 0x00, 0x00, 0x00, 0x00,
   0x00, 0x00, 0x00, 0x00, 0x00, 0x00, 0x00, 0x00, 0x00, 0x00, 0x00, 0x00,
   0x00, 0x00, 0x00, 0x00, 0x00, 0x00, 0x00, 0x00, 0x80, 0x00, 0x00, 0x00,
   0x00, 0x00, 0xc0, 0x01, 0x00, 0x00, 0x00, 0x00, 0xc0, 0x01, 0x00, 0x00,
   0x00, 0x00, 0xc0, 0x01, 0x00, 0x00, 0x00, 0x00, 0xc0, 0x01, 0x00, 0x00,
   0x00, 0x00, 0xc0, 0x01, 0x00, 0x00, 0x00, 0x00, 0xc0, 0x01, 0x00, 0x00,
   0x00, 0x00, 0xc0, 0x01, 0x00, 0x00, 0x00, 0x00, 0xc0, 0x01, 0x00, 0x00,
   0x00, 0x00, 0xc0, 0x01, 0x00, 0x00, 0x00, 0x00, 0xc0, 0x01, 0x00, 0x00,
   0x00, 0x00, 0xc0, 0x01, 0x00, 0x00, 0x00, 0x00, 0xc0, 0x01, 0x00, 0x00,
   0x00, 0x00, 0xc0, 0x01, 0x00, 0x00, 0x00, 0x00, 0x80, 0x00, 0x00, 0x00,
   0x00, 0xff, 0x1f, 0xfc, 0x7f, 0x00, 0x80, 0xff, 0x3f, 0xfe, 0xff, 0x00,
   0x00, 0xff, 0x1f, 0xfc, 0x7f, 0x00, 0x00, 0x00, 0x80, 0x00, 0x00, 0x00,
   0x00, 0x00, 0xc0, 0x01, 0x00, 0x00, 0x00, 0x00, 0xc0, 0x01, 0x00, 0x00,
   0x00, 0x00, 0xc0, 0x01, 0x00, 0x00, 0x00, 0x00, 0xc0, 0x01, 0x00, 0x00,
   0x00, 0x00, 0xc0, 0x01, 0x0f, 0x00, 0x00, 0x00, 0xc0, 0x81, 0x3f, 0x00,
   0x00, 0x00, 0xc0, 0xc1, 0x3f, 0x00, 0x00, 0x00, 0xc0, 0xc1, 0x39, 0x00,
   0x00, 0x00, 0xc0, 0xc1, 0x39, 0x00, 0x00, 0x00, 0xc0, 0xc1, 0x3f, 0x00,
   0x00, 0x00, 0xc0, 0x81, 0x7f, 0x00, 0x00, 0x00, 0xc0, 0x01, 0xff, 0x00,
   0x00, 0x00, 0xc0, 0x01, 0xf0, 0x01, 0x00, 0x00, 0x80, 0x00, 0xe0, 0x03,
   0x00, 0x00, 0x00, 0x00, 0xc0, 0x07, 0x00, 0x00, 0x00, 0x00, 0x80, 0x07,
   0x00, 0x00, 0x00, 0x00, 0x00, 0x03, 0x00, 0x00, 0x00, 0x00, 0x00, 0x00,
   0x00, 0x00, 0x00, 0x00, 0x00, 0x00, 0x00, 0x00, 0x00, 0x00, 0x00, 0x00,
   0x00, 0x00, 0x00, 0x00, 0x00, 0x00, 0x00, 0x00, 0x00, 0x00, 0x00, 0x00 };
