/* Created with The GIMP */
#define cursor_zoom_width 48
#define cursor_zoom_height 48
#define cursor_zoom_x_hot 24
#define cursor_zoom_y_hot 24
static unsigned char cursor_zoom_bits[] = {
   0x00, 0x00, 0x00, 0x00, 0x00, 0x00, 0x00, 0x00, 0x00, 0x00, 0x00, 0x00,
   0x00, 0x00, 0x00, 0x00, 0x00, 0x00, 0x00, 0x00, 0x00, 0x00, 0x00, 0x00,
   0x00, 0x00, 0x00, 0x00, 0x00, 0x00, 0x00, 0x00, 0x00, 0x00, 0x00, 0x00,
   0x00, 0x00, 0x00, 0x00, 0x00, 0x00, 0x00, 0x00, 0x80, 0x00, 0x00, 0x00,
   0x00, 0x00, 0x40, 0x01, 0x00, 0x00, 0x00, 0x00, 0x40, 0x01, 0x00, 0x00,
   0x00, 0x00, 0x40, 0x01, 0x00, 0x00, 0x00, 0x00, 0x40, 0x01, 0x00, 0x00,
   0x00, 0x00, 0x40, 0x01, 0x00, 0x00, 0x00, 0x00, 0x40, 0x01, 0x00, 0x00,
   0x00, 0x00, 0x40, 0x01, 0x00, 0x00, 0x00, 0x00, 0x40, 0x01, 0x00, 0x00,
   0x00, 0x00, 0x40, 0x01, 0x00, 0x00, 0x00, 0x00, 0x40, 0x01, 0x00, 0x00,
   0x00, 0x00, 0x40, 0x01, 0x00, 0x00, 0x00, 0x00, 0x40, 0x01, 0x00, 0x00,
   0x00, 0x00, 0x40, 0x01, 0x00, 0x00, 0x00, 0x00, 0x80, 0x00, 0x00, 0x00,
   0x00, 0xff, 0x1f, 0xfc, 0x7f, 0x00, 0x80, 0x00, 0x20, 0x02, 0x80, 0x00,
   0x00, 0xff, 0x1f, 0xfc, 0x7f, 0x00, 0x00, 0x00, 0x80, 0x00, 0x00, 0x00,
   0x00, 0x00, 0x40, 0x01, 0x00, 0x00, 0x00, 0x00, 0x40, 0x01, 0x00, 0x00,
   0x00, 0x00, 0x40, 0x01, 0x00, 0x00, 0x00, 0x00, 0x40, 0x01, 0x00, 0x00,
   0x00, 0x00, 0x40, 0x01, 0x0f, 0x00, 0x00, 0x00, 0x40, 0x81, 0x30, 0x00,
   0x00, 0x00, 0x40, 0x41, 0x2f, 0x00, 0x00, 0x00, 0x40, 0x41, 0x29, 0x00,
   0x00, 0x00, 0x40, 0x41, 0x29, 0x00, 0x00, 0x00, 0x40, 0x41, 0x2f, 0x00,
   0x00, 0x00, 0x40, 0x81, 0x40, 0x00, 0x00, 0x00, 0x40, 0x01, 0x8f, 0x00,
   0x00, 0x00, 0x40, 0x01, 0x10, 0x01, 0x00, 0x00, 0x80, 0x00, 0x20, 0x02,
   0x00, 0x00, 0x00, 0x00, 0x40, 0x04, 0x00, 0x00, 0x00, 0x00, 0x80, 0x04,
   0x00, 0x00, 0x00, 0x00, 0x00, 0x03, 0x00, 0x00, 0x00, 0x00, 0x00, 0x00,
   0x00, 0x00, 0x00, 0x00, 0x00, 0x00, 0x00, 0x00, 0x00, 0x00, 0x00, 0x00,
   0x00, 0x00, 0x00, 0x00, 0x00, 0x00, 0x00, 0x00, 0x00, 0x00, 0x00, 0x00 };
