/* Created with The GIMP */
#define cursor_scroll_mask_width 48
#define cursor_scroll_mask_height 48
#define cursor_scroll_mask_x_hot 24
#define cursor_scroll_mask_y_hot 24
static unsigned char cursor_scroll_mask_bits[] = {
   0x00, 0x00, 0x00, 0x00, 0x00, 0x00, 0x00, 0x00, 0x00, 0x00, 0x00, 0x00,
   0x00, 0x00, 0x00, 0x00, 0x00, 0x00, 0x00, 0x00, 0x00, 0x00, 0x00, 0x00,
   0x00, 0x00, 0x00, 0x00, 0x00, 0x00, 0x00, 0x00, 0x00, 0x00, 0x00, 0x00,
   0x00, 0x00, 0x80, 0x00, 0x00, 0x00, 0x00, 0x00, 0xc0, 0x01, 0x00, 0x00,
   0x00, 0x00, 0xe0, 0x03, 0x00, 0x00, 0x00, 0x00, 0xf0, 0x07, 0x00, 0x00,
   0x00, 0x00, 0xf8, 0x0f, 0x00, 0x00, 0x00, 0x00, 0xf0, 0x07, 0x00, 0x00,
   0x00, 0x00, 0xe0, 0x03, 0x00, 0x00, 0x00, 0x00, 0xe0, 0x03, 0x00, 0x00,
   0x00, 0x00, 0xe0, 0x03, 0x00, 0x00, 0x00, 0x00, 0xe0, 0x03, 0x00, 0x00,
   0x00, 0x00, 0xe0, 0x03, 0x00, 0x00, 0x00, 0x00, 0xe0, 0x03, 0x00, 0x00,
   0x00, 0x00, 0xe0, 0x03, 0x00, 0x00, 0x00, 0x04, 0xe0, 0x03, 0x10, 0x00,
   0x00, 0x0e, 0xc0, 0x01, 0x38, 0x00, 0x00, 0xff, 0x0f, 0xf8, 0x7f, 0x00,
   0x80, 0xff, 0x1f, 0xfc, 0xff, 0x00, 0xc0, 0xff, 0x1f, 0xfc, 0xff, 0x01,
   0x80, 0xff, 0x1f, 0xfc, 0xff, 0x00, 0x00, 0xff, 0x0f, 0xf8, 0x7f, 0x00,
   0x00, 0x0e, 0xc0, 0x01, 0x38, 0x00, 0x00, 0x04, 0xe0, 0x03, 0x10, 0x00,
   0x00, 0x00, 0xe0, 0x03, 0x00, 0x00, 0x00, 0x00, 0xe0, 0x03, 0x00, 0x00,
   0x00, 0x00, 0xe0, 0x03, 0x00, 0x00, 0x00, 0x00, 0xe0, 0x03, 0x00, 0x00,
   0x00, 0x00, 0xe0, 0x03, 0x00, 0x00, 0x00, 0x00, 0xe0, 0x03, 0x00, 0x00,
   0x00, 0x00, 0xe0, 0x03, 0x00, 0x00, 0x00, 0x00, 0xf0, 0x07, 0x00, 0x00,
   0x00, 0x00, 0xf8, 0x0f, 0x00, 0x00, 0x00, 0x00, 0xf0, 0x07, 0x00, 0x00,
   0x00, 0x00, 0xe0, 0x03, 0x00, 0x00, 0x00, 0x00, 0xc0, 0x01, 0x00, 0x00,
   0x00, 0x00, 0x80, 0x00, 0x00, 0x00, 0x00, 0x00, 0x00, 0x00, 0x00, 0x00,
   0x00, 0x00, 0x00, 0x00, 0x00, 0x00, 0x00, 0x00, 0x00, 0x00, 0x00, 0x00,
   0x00, 0x00, 0x00, 0x00, 0x00, 0x00, 0x00, 0x00, 0x00, 0x00, 0x00, 0x00,
   0x00, 0x00, 0x00, 0x00, 0x00, 0x00, 0x00, 0x00, 0x00, 0x00, 0x00, 0x00 };
