/* Created with The GIMP */
#define cursor_scroll_width 48
#define cursor_scroll_height 48
#define cursor_scroll_x_hot 24
#define cursor_scroll_y_hot 24
static unsigned char cursor_scroll_bits[] = {
   0x00, 0x00, 0x00, 0x00, 0x00, 0x00, 0x00, 0x00, 0x00, 0x00, 0x00, 0x00,
   0x00, 0x00, 0x00, 0x00, 0x00, 0x00, 0x00, 0x00, 0x00, 0x00, 0x00, 0x00,
   0x00, 0x00, 0x00, 0x00, 0x00, 0x00, 0x00, 0x00, 0x00, 0x00, 0x00, 0x00,
   0x00, 0x00, 0x80, 0x00, 0x00, 0x00, 0x00, 0x00, 0x40, 0x01, 0x00, 0x00,
   0x00, 0x00, 0x20, 0x02, 0x00, 0x00, 0x00, 0x00, 0x10, 0x04, 0x00, 0x00,
   0x00, 0x00, 0x08, 0x08, 0x00, 0x00, 0x00, 0x00, 0x30, 0x06, 0x00, 0x00,
   0x00, 0x00, 0x20, 0x02, 0x00, 0x00, 0x00, 0x00, 0x20, 0x02, 0x00, 0x00,
   0x00, 0x00, 0x20, 0x02, 0x00, 0x00, 0x00, 0x00, 0x20, 0x02, 0x00, 0x00,
   0x00, 0x00, 0x20, 0x02, 0x00, 0x00, 0x00, 0x00, 0x20, 0x02, 0x00, 0x00,
   0x00, 0x00, 0x20, 0x02, 0x00, 0x00, 0x00, 0x04, 0x20, 0x02, 0x10, 0x00,
   0x00, 0x0a, 0xc0, 0x01, 0x28, 0x00, 0x00, 0xf9, 0x0f, 0xf8, 0x4f, 0x00,
   0x80, 0x00, 0x10, 0x04, 0x80, 0x00, 0x40, 0x00, 0x10, 0x04, 0x00, 0x01,
   0x80, 0x00, 0x10, 0x04, 0x80, 0x00, 0x00, 0xf9, 0x0f, 0xf8, 0x4f, 0x00,
   0x00, 0x0a, 0xc0, 0x01, 0x28, 0x00, 0x00, 0x04, 0x20, 0x02, 0x10, 0x00,
   0x00, 0x00, 0x20, 0x02, 0x00, 0x00, 0x00, 0x00, 0x20, 0x02, 0x00, 0x00,
   0x00, 0x00, 0x20, 0x02, 0x00, 0x00, 0x00, 0x00, 0x20, 0x02, 0x00, 0x00,
   0x00, 0x00, 0x20, 0x02, 0x00, 0x00, 0x00, 0x00, 0x20, 0x02, 0x00, 0x00,
   0x00, 0x00, 0x20, 0x02, 0x00, 0x00, 0x00, 0x00, 0x30, 0x06, 0x00, 0x00,
   0x00, 0x00, 0x08, 0x08, 0x00, 0x00, 0x00, 0x00, 0x10, 0x04, 0x00, 0x00,
   0x00, 0x00, 0x20, 0x02, 0x00, 0x00, 0x00, 0x00, 0x40, 0x01, 0x00, 0x00,
   0x00, 0x00, 0x80, 0x00, 0x00, 0x00, 0x00, 0x00, 0x00, 0x00, 0x00, 0x00,
   0x00, 0x00, 0x00, 0x00, 0x00, 0x00, 0x00, 0x00, 0x00, 0x00, 0x00, 0x00,
   0x00, 0x00, 0x00, 0x00, 0x00, 0x00, 0x00, 0x00, 0x00, 0x00, 0x00, 0x00,
   0x00, 0x00, 0x00, 0x00, 0x00, 0x00, 0x00, 0x00, 0x00, 0x00, 0x00, 0x00 };
